<svg xmlns="http://www.w3.org/2000/svg" width="160" height="161" fill="none"><g clip-path="url(#a)" opacity=".5"><path fill="url(#b)" d="M108.96 76.34c1.92-3.48 3.04-7.52 3.04-11.84 0-10.6-6.72-19.56-16-22.76V28.5H80v12h-8v-12H56v12h-8v16h8v48h-8v16h12v12h16v-12h8v12h16v-12.36c11.32-1.92 20-11.76 20-23.64 0-8.48-4.4-15.92-11.04-20.16ZM72 56.5h16.6c4.08 0 7.4 3.6 7.4 8s-3.32 8-7.4 8H72v-16Zm24 48H72v-16h24c4.4 0 8 3.6 8 8s-3.6 8-8 8Z"/><path fill="url(#c)" d="M80 .5C35.88.5 0 36.38 0 80.5s35.88 80 80 80 80-35.88 80-80-35.88-80-80-80Zm0 144c-35.28 0-64-28.72-64-64s28.72-64 64-64 64 28.72 64 64-28.72 64-64 64Z"/></g><defs><linearGradient id="b" x1="187" x2="23" y1="80.5" y2="80.5" gradientUnits="userSpaceOnUse"><stop stop-color="#0FCB97"/><stop offset="1" stop-color="#0FCB97" stop-opacity="0"/></linearGradient><linearGradient id="c" x1="183" x2="17" y1="80.5" y2="80.5" gradientUnits="userSpaceOnUse"><stop stop-color="#0FCB97"/><stop offset="1" stop-color="#0FCB97" stop-opacity="0"/></linearGradient><clipPath id="a"><path fill="#fff" d="M0 .5h160v160H0z"/></clipPath></defs></svg>
