<svg xmlns="http://www.w3.org/2000/svg" width="187" height="66" fill="none"><path fill="#0FCB97" fill-rule="evenodd" d="M30.375 61.097c16.776 0 30.375-13.677 30.375-30.548C60.75 13.677 47.15 0 30.375 0 13.599 0 0 13.677 0 30.549c0 13.56 8.786 25.057 20.945 29.047V37.9H36.22c1.357 0 2.48-.235 3.388-.715.898-.48 1.608-1.076 2.12-1.8a7.432 7.432 0 0 0 1.106-2.262c.224-.787.341-1.466.341-2.045 0-.452-.072-1.058-.215-1.827-.144-.77-.44-1.538-.89-2.325-.458-.778-1.141-1.448-2.067-1.982-.925-.533-2.165-.805-3.729-.805H18.536a7.28 7.28 0 0 1-5.94-3.076l-3.971-5.6H24V8.674h6v6.789h4.675c.193 0 .385.002.575.005V8.674h6v7.593c1.041.286 2.012.649 2.914 1.087 2.587 1.257 4.555 3.03 5.912 5.329 1.357 2.298 2.031 5.012 2.049 8.17 0 1.854-.279 3.727-.836 5.608a15.062 15.062 0 0 1-2.65 5.112c-1.214 1.53-2.84 2.76-4.87 3.691-2.032.932-4.53 1.394-7.486 1.394h-6.407v14.435c.166.003.332.004.499.004Z" clip-rule="evenodd"/><path fill="#0FCB97" d="M111.993 18.59h12.521v-5.582h-12.521V6.74h14.145V1.158h-19.891v29.363h20.446v-5.587h-14.7V18.59ZM145.434 20.743h5.034v3.55c-.474.268-1.057.46-1.745.577-.688.122-1.44.18-2.26.18-1.428 0-2.729-.198-3.902-.6-1.174-.401-2.191-.983-3.052-1.757a7.95 7.95 0 0 1-2-2.811c-.474-1.106-.711-2.346-.711-3.731 0-1.572.213-2.945.635-4.127.422-1.181 1.052-2.176 1.885-2.974.832-.797 1.855-1.396 3.069-1.792 1.214-.396 2.613-.6 4.203-.6.636 0 1.358.088 2.179.262.821.175 1.624.39 2.416.658.792.268 1.428.53 1.902.797l1.861-5.383c-1.081-.612-2.404-1.124-3.959-1.537-1.561-.413-3.278-.617-5.151-.617-1.982 0-3.878.32-5.688.96a13.324 13.324 0 0 0-4.792 2.934c-1.387 1.315-2.485 2.968-3.289 4.947-.803 1.979-1.208 4.313-1.208 7.002 0 2.048.358 3.934 1.069 5.663a12.713 12.713 0 0 0 3.093 4.487c1.347 1.263 2.971 2.247 4.873 2.95 1.902.705 4.041 1.06 6.416 1.06.896 0 1.85-.099 2.856-.297a24.264 24.264 0 0 0 2.954-.78c.965-.32 1.815-.669 2.555-1.059.74-.384 1.283-.762 1.624-1.135V15.161h-10.856v5.582h-.011ZM179.51 30.52h6.659L173.013 0h-.318l-13.157 30.52h5.665l2.376-5.744h9.676l2.255 5.745Zm-9.914-10.615 2.96-7.159 2.803 7.159h-5.763ZM99.79 5.803c-.872-1.479-2.138-2.62-3.803-3.428-1.665-.81-3.7-1.217-6.104-1.217H73.125l2.555 3.603A4.683 4.683 0 0 0 79.5 6.74h11.412c1.005 0 1.803.174 2.399.518.595.343 1.034.774 1.33 1.274.288.507.479 1.001.571 1.496.093.495.14.885.14 1.176 0 .372-.076.809-.22 1.315-.145.506-.382.99-.712 1.455-.329.466-.786.85-1.364 1.158-.584.309-1.306.46-2.179.46H81.05v14.923h5.746v-9.289h4.121c1.902 0 3.51-.297 4.816-.896 1.306-.6 2.352-1.391 3.133-2.375a9.682 9.682 0 0 0 1.705-3.288c.358-1.21.538-2.416.538-3.609-.012-2.03-.446-3.777-1.318-5.255Z"/><path fill="#fff" d="M87.501 34.368c1.648 0 3.087.285 4.324.85 1.237.564 2.197 1.408 2.885 2.526.687 1.117 1.028 2.52 1.028 4.202a9.228 9.228 0 0 1-.468 2.922 6.972 6.972 0 0 1-1.497 2.543c-.688.757-1.56 1.356-2.619 1.81-1.063.454-2.34.681-3.838.681h-4.428v11.233h-1.832V34.368H87.5Zm-.19 13.759c1.3 0 2.375-.21 3.236-.623.862-.413 1.538-.943 2.024-1.583a6.336 6.336 0 0 0 1.046-2.014c.214-.704.318-1.356.318-1.961 0-.856-.139-1.636-.41-2.34a5.103 5.103 0 0 0-1.214-1.827 5.637 5.637 0 0 0-1.966-1.205c-.774-.291-1.659-.43-2.659-.43h-4.804v11.989h4.428v-.006ZM101.872 47.783c0-1.885.346-3.649 1.046-5.296a13.921 13.921 0 0 1 2.919-4.37 13.747 13.747 0 0 1 4.324-2.98c1.636-.717 3.387-1.077 5.26-1.077 1.873 0 3.63.355 5.278 1.076a13.696 13.696 0 0 1 4.341 2.98 14.247 14.247 0 0 1 2.936 4.371c.711 1.647 1.07 3.41 1.07 5.296 0 1.886-.359 3.65-1.07 5.297a14.067 14.067 0 0 1-2.936 4.353 13.579 13.579 0 0 1-4.341 2.94c-1.648.704-3.405 1.053-5.278 1.053-1.873 0-3.624-.338-5.26-1.019a13.509 13.509 0 0 1-4.324-2.863 13.2 13.2 0 0 1-2.919-4.336c-.7-1.653-1.046-3.463-1.046-5.425Zm1.867.041c0 1.636.3 3.166.896 4.598a11.738 11.738 0 0 0 2.508 3.772 11.952 11.952 0 0 0 3.729 2.543c1.41.617 2.913.925 4.514.925 1.648 0 3.186-.308 4.608-.925a11.884 11.884 0 0 0 3.745-2.543 11.97 11.97 0 0 0 2.526-3.772c.613-1.432.92-2.98.92-4.639 0-1.635-.307-3.172-.92-4.615a12.212 12.212 0 0 0-2.526-3.806 12.002 12.002 0 0 0-3.745-2.584 11.184 11.184 0 0 0-4.567-.943c-1.648 0-3.185.32-4.607.96a11.812 11.812 0 0 0-3.723 2.62 12.02 12.02 0 0 0-2.474 3.823c-.59 1.45-.884 2.98-.884 4.586ZM135.595 47.783c0-1.885.347-3.649 1.046-5.296a13.941 13.941 0 0 1 2.92-4.37 13.743 13.743 0 0 1 4.323-2.98c1.636-.717 3.388-1.077 5.261-1.077 1.873 0 3.63.355 5.277 1.076a13.69 13.69 0 0 1 4.342 2.98 14.265 14.265 0 0 1 2.936 4.371c.711 1.647 1.069 3.41 1.069 5.296 0 1.886-.358 3.65-1.069 5.297a14.084 14.084 0 0 1-2.936 4.353 13.572 13.572 0 0 1-4.342 2.94c-1.647.704-3.404 1.053-5.277 1.053-1.873 0-3.625-.338-5.261-1.019a13.504 13.504 0 0 1-4.323-2.863 13.218 13.218 0 0 1-2.92-4.336c-.693-1.653-1.046-3.463-1.046-5.425Zm1.873.041c0 1.636.301 3.166.896 4.598a11.74 11.74 0 0 0 2.509 3.772 11.947 11.947 0 0 0 3.728 2.543 11.14 11.14 0 0 0 4.515.925c1.647 0 3.185-.308 4.607-.925a11.889 11.889 0 0 0 3.746-2.543 11.987 11.987 0 0 0 2.526-3.772c.613-1.432.919-2.98.919-4.639 0-1.635-.306-3.172-.919-4.615a12.247 12.247 0 0 0-2.526-3.806 12.007 12.007 0 0 0-3.746-2.584 11.181 11.181 0 0 0-4.567-.943c-1.647 0-3.185.32-4.607.96a11.796 11.796 0 0 0-3.722 2.62 11.986 11.986 0 0 0-2.474 3.823c-.59 1.45-.885 2.98-.885 4.586ZM169.764 34.368h1.832V59.36h14.567v1.77h-16.399V34.367Z"/></svg>
