<svg xmlns="http://www.w3.org/2000/svg" width="17" height="16" fill="none"><g fill="#0FCB97" clip-path="url(#a)"><path d="M16.337 7.67c-.097-.208-2.448-5.093-7.673-5.093-5.226 0-7.577 4.885-7.674 5.094l-.17.36.194.349c.116.205 2.89 5.043 7.646 5.043s7.53-4.838 7.646-5.043l.194-.35-.17-.36h.007ZM8.664 10.48A2.481 2.481 0 0 1 6.184 8a2.481 2.481 0 0 1 2.48-2.48A2.481 2.481 0 0 1 11.143 8a2.481 2.481 0 0 1-2.48 2.479Zm-6.078-2.51c.488-.844 1.894-2.89 4.338-3.595A4.028 4.028 0 0 0 4.635 8c0 1.472.798 2.758 1.98 3.463-2.077-.833-3.506-2.712-4.029-3.494Zm8.127 3.494A4.03 4.03 0 0 0 12.693 8a4.028 4.028 0 0 0-2.29-3.626c2.444.705 3.85 2.754 4.338 3.595-.523.782-1.952 2.661-4.028 3.494Z"/><path d="M9.361 7.535a.7.7 0 0 1-.697-.697c0-.081.015-.155.043-.229-.016 0-.028-.004-.043-.004a1.394 1.394 0 1 0 0 2.79c.77 0 1.395-.624 1.395-1.395 0-.252-.074-.484-.19-.69a.696.696 0 0 1-.508.225Z"/></g><defs><clipPath id="a"><path fill="#fff" d="M.5 0h16v16H.5z"/></clipPath></defs></svg>
