<svg xmlns="http://www.w3.org/2000/svg" width="20" height="20" fill="none"><path fill="#14C896" d="m13.796 4.792-9.002 9.002 1.414 1.414 9.002-9.001-1.414-1.415ZM7.083 8.333c-.687 0-1.25-.562-1.25-1.25 0-.687.563-1.25 1.25-1.25.688 0 1.25.563 1.25 1.25 0 .688-.562 1.25-1.25 1.25Zm0-1.667a.418.418 0 0 0-.416.417c0 .23.187.417.416.417.23 0 .417-.188.417-.417a.418.418 0 0 0-.417-.417ZM12.917 14.167c-.688 0-1.25-.563-1.25-1.25 0-.688.562-1.25 1.25-1.25.687 0 1.25.563 1.25 1.25 0 .688-.563 1.25-1.25 1.25Zm0-1.667a.418.418 0 0 0-.417.417c0 .23.188.417.417.417.229 0 .416-.188.416-.417a.418.418 0 0 0-.416-.417Z"/><path fill="#14C896" d="M10 20C4.485 20 0 15.515 0 10S4.485 0 10 0s10 4.485 10 10-4.485 10-10 10Zm0-18c-4.41 0-8 3.59-8 8s3.59 8 8 8 8-3.59 8-8-3.59-8-8-8Z" opacity=".5"/></svg>
