<svg xmlns="http://www.w3.org/2000/svg" width="20" height="20" fill="none"><path fill="#fff" fill-opacity=".5" d="M19.797 9.588c-.121-.261-3.06-6.367-9.592-6.367S.735 9.327.613 9.588l-.213.45.242.437c.145.256 3.612 6.304 9.558 6.304s9.413-6.048 9.558-6.304l.242-.436-.213-.45h.01Zm-9.592 3.51A3.102 3.102 0 0 1 7.106 10c0-1.71 1.39-3.099 3.099-3.099 1.71 0 3.099 1.39 3.099 3.099 0 1.71-1.39 3.099-3.1 3.099ZM2.608 9.962c.61-1.055 2.368-3.612 5.423-4.493A5.035 5.035 0 0 0 5.169 10c0 1.84.998 3.447 2.475 4.329-2.596-1.041-4.382-3.39-5.036-4.368Zm10.158 4.368A5.037 5.037 0 0 0 15.24 10a5.035 5.035 0 0 0-2.861-4.532c3.055.881 4.813 3.443 5.423 4.493-.654.978-2.44 3.327-5.036 4.368Z"/><path fill="#fff" fill-opacity=".5" d="M11.077 9.419a.874.874 0 0 1-.872-.872c0-.101.02-.193.053-.285-.019 0-.034-.005-.053-.005a1.742 1.742 0 1 0 0 3.486c.964 0 1.743-.78 1.743-1.743 0-.315-.092-.605-.237-.862a.87.87 0 0 1-.634.281Z"/></svg>
