<svg xmlns="http://www.w3.org/2000/svg" width="20" height="20" fill="none"><g clip-path="url(#a)"><path fill="#fff" fill-opacity=".5" d="M17.306 9.01c-1.062-1.68-3.438-4.495-7.392-4.495-3.955 0-6.33 2.815-7.398 4.496L.884 7.977C1.913 6.355 4.85 2.584 9.91 2.584c5.06 0 7.996 3.77 9.024 5.393l-1.632 1.034h.005Z" opacity=".5"/><path fill="#fff" fill-opacity=".5" d="M19.136 11.174 20 9.445l-.372-.183-.154-.329c-.02-.038-.193-.41-.541-.956L17.3 9.011c.068.106.13.207.179.294-.85 1.27-3.612 4.867-7.571 4.867-3.96 0-6.722-3.597-7.571-4.867.053-.087.11-.188.178-.294L.884 7.977c-.347.55-.521.918-.54.956l-.155.329-.372.183.864 1.729.445-.223c.236.324.526.691.864 1.082l-.493.493 1.367 1.366.488-.488c.487.43 1.033.845 1.627 1.222l-.285.565 1.728.864.28-.56c.696.27 1.44.464 2.236.555v.541h1.931v-.54a8.973 8.973 0 0 0 2.236-.556l.28.56 1.729-.864-.285-.565a11.919 11.919 0 0 0 1.627-1.222l.488.488 1.366-1.366-.492-.493c.342-.391.632-.758.864-1.082l.444.223h.01Z"/></g><defs><clipPath id="a"><path fill="#fff" d="M0 0h20v20H0z"/></clipPath></defs></svg>
