<svg xmlns="http://www.w3.org/2000/svg" width="24" height="24" fill="none"><path fill="#14C896" d="M8.466 12.487a3.487 3.487 0 0 0 3.47 3.47 3.487 3.487 0 0 0 3.471-3.47 3.487 3.487 0 0 0-3.47-3.471 3.487 3.487 0 0 0-3.471 3.47Z"/><path fill="#14C896" fill-rule="evenodd" d="M16.296 2.032c1.778 0 3.344.592 4.445 1.735 1.1 1.1 1.693 2.625 1.693 4.402v8.72c0 1.82-.593 3.386-1.736 4.487-1.1 1.058-2.624 1.65-4.444 1.65H7.619c-1.735 0-3.26-.55-4.402-1.65-1.185-1.143-1.778-2.71-1.778-4.53V8.17c0-3.682 2.455-6.137 6.138-6.137h8.72Zm2.498 4.91a1.228 1.228 0 1 1-2.455 0 1.228 1.228 0 0 1 2.455 0ZM6.518 12.487c0-3.006 2.455-5.418 5.418-5.418s5.418 2.455 5.418 5.418-2.412 5.418-5.418 5.418a5.401 5.401 0 0 1-5.418-5.418Z" clip-rule="evenodd"/></svg>
