<svg xmlns="http://www.w3.org/2000/svg" width="25" height="25" fill="none"><path fill="#14C896" d="M21.062 2.412H3.338a1.525 1.525 0 0 0-1.079.427 1.508 1.508 0 0 0-.459 1.06v17.825a1.5 1.5 0 0 0 .46 1.06 1.517 1.517 0 0 0 1.078.428h17.724a1.523 1.523 0 0 0 1.415-.912 1.5 1.5 0 0 0 .123-.576V3.9a1.5 1.5 0 0 0-.46-1.06 1.518 1.518 0 0 0-1.078-.427ZM8.109 19.822H4.97v-9.36h3.14v9.36ZM6.54 9.151c-.432 0-.847-.172-1.153-.476a1.617 1.617 0 0 1 0-2.294 1.637 1.637 0 0 1 1.154-.476 1.652 1.652 0 0 1 1.279.405 1.633 1.633 0 0 1 .548 1.218 1.625 1.625 0 0 1-.548 1.218 1.645 1.645 0 0 1-1.28.404Zm12.89 10.67h-3.138v-5.024c0-1.258-.45-2.08-1.59-2.08a1.733 1.733 0 0 0-.985.316 1.716 1.716 0 0 0-.627.818 2.066 2.066 0 0 0-.104.759v5.2h-3.14v-9.36h3.14v1.32a3.13 3.13 0 0 1 1.2-1.171c.499-.275 1.064-.41 1.635-.388 2.093 0 3.61 1.341 3.61 4.222v5.387Z"/></svg>
