<svg xmlns="http://www.w3.org/2000/svg" width="16" height="16" fill="none"><g clip-path="url(#a)"><g clip-path="url(#b)"><path fill="#fff" d="M7.259 11.333 4 8.033 5.185 6.83l2.074 2.1 3.556-3.598L12 6.53l-4.741 4.803Z"/><path fill="#fff" d="M8 16c-4.412 0-8-3.588-8-8s3.588-8 8-8 8 3.588 8 8-3.588 8-8 8ZM8 1.6A6.408 6.408 0 0 0 1.6 8c0 3.528 2.872 6.4 6.4 6.4 3.528 0 6.4-2.872 6.4-6.4 0-3.528-2.872-6.4-6.4-6.4Z" opacity=".5"/></g></g><defs><clipPath id="a"><path fill="#fff" d="M0 0h16v16H0z"/></clipPath><clipPath id="b"><path fill="#fff" d="M0 0h16v16H0z"/></clipPath></defs></svg>
