<svg width="49" height="48" viewBox="0 0 49 48" fill="none" xmlns="http://www.w3.org/2000/svg">
    <path d="M44.7881 3L26.9978 16.1635L30.3061 8.40583L44.7881 3Z" fill="#E17726" stroke="#E17726" stroke-width="0.165833" stroke-linecap="round" stroke-linejoin="round"/>
    <path d="M3.75269 3L21.3846 16.2864L18.2348 8.40582L3.75269 3Z" fill="#E27625" stroke="#E27625" stroke-width="0.165833" stroke-linecap="round" stroke-linejoin="round"/>
    <path d="M38.3824 33.5212L33.6489 40.7524L43.7846 43.5431L46.6881 33.6793L38.3824 33.5212Z" fill="#E27625" stroke="#E27625" stroke-width="0.165833" stroke-linecap="round" stroke-linejoin="round"/>
    <path d="M1.86938 33.6793L4.75522 43.5431L14.8733 40.7524L10.1574 33.5212L1.86938 33.6793Z" fill="#E27625" stroke="#E27625" stroke-width="0.165833" stroke-linecap="round" stroke-linejoin="round"/>
    <path d="M14.3279 21.3059L11.5125 25.5533L21.5425 26.0097L21.2082 15.2156L14.3279 21.3059Z" fill="#E27625" stroke="#E27625" stroke-width="0.165833" stroke-linecap="round" stroke-linejoin="round"/>
    <path d="M34.2118 21.3057L27.2261 15.0925L26.9973 26.0095L37.0273 25.5532L34.2118 21.3057Z" fill="#E27625" stroke="#E27625" stroke-width="0.165833" stroke-linecap="round" stroke-linejoin="round"/>
    <path d="M14.8735 40.7525L20.9443 37.8214L15.7182 33.7495L14.8735 40.7525Z" fill="#E27625" stroke="#E27625" stroke-width="0.165833" stroke-linecap="round" stroke-linejoin="round"/>
    <path d="M27.5961 37.8214L33.6492 40.7525L32.8222 33.7495L27.5961 37.8214Z" fill="#E27625" stroke="#E27625" stroke-width="0.165833" stroke-linecap="round" stroke-linejoin="round"/>
    <path d="M33.6492 40.7528L27.5961 37.8218L28.0887 41.7532L28.0359 43.4206L33.6492 40.7528Z" fill="#D5BFB2" stroke="#D5BFB2" stroke-width="0.165833" stroke-linecap="round" stroke-linejoin="round"/>
    <path d="M14.8735 40.7528L20.5045 43.4206L20.4693 41.7532L20.9443 37.8218L14.8735 40.7528Z" fill="#D5BFB2" stroke="#D5BFB2" stroke-width="0.165833" stroke-linecap="round" stroke-linejoin="round"/>
    <path d="M20.6098 31.1522L15.5771 29.678L19.1317 28.0457L20.6098 31.1522Z" fill="#233447" stroke="#233447" stroke-width="0.165833" stroke-linecap="round" stroke-linejoin="round"/>
    <path d="M27.9304 31.1522L29.4086 28.0457L32.9807 29.678L27.9304 31.1522Z" fill="#233447" stroke="#233447" stroke-width="0.165833" stroke-linecap="round" stroke-linejoin="round"/>
    <path d="M14.8736 40.7524L15.7535 33.5212L10.1577 33.6793L14.8736 40.7524Z" fill="#CC6228" stroke="#CC6228" stroke-width="0.165833" stroke-linecap="round" stroke-linejoin="round"/>
    <path d="M32.7869 33.5212L33.6491 40.7524L38.3826 33.6793L32.7869 33.5212Z" fill="#CC6228" stroke="#CC6228" stroke-width="0.165833" stroke-linecap="round" stroke-linejoin="round"/>
    <path d="M37.0273 25.5532L26.9973 26.0096L27.9299 31.1522L29.4081 28.0455L32.9802 29.6778L37.0273 25.5532Z" fill="#CC6228" stroke="#CC6228" stroke-width="0.165833" stroke-linecap="round" stroke-linejoin="round"/>
    <path d="M15.5773 29.6778L19.1318 28.0455L20.6099 31.1522L21.5425 26.0096L11.5125 25.5532L15.5773 29.6778Z" fill="#CC6228" stroke="#CC6228" stroke-width="0.165833" stroke-linecap="round" stroke-linejoin="round"/>
    <path d="M11.5128 25.5532L15.7184 33.7498L15.5776 29.6778L11.5128 25.5532Z" fill="#E27525" stroke="#E27525" stroke-width="0.165833" stroke-linecap="round" stroke-linejoin="round"/>
    <path d="M32.9804 29.6778L32.822 33.7498L37.0276 25.5532L32.9804 29.6778Z" fill="#E27525" stroke="#E27525" stroke-width="0.165833" stroke-linecap="round" stroke-linejoin="round"/>
    <path d="M21.5433 26.0093L20.6106 31.1519L21.7896 37.2246L22.0536 29.2212L21.5433 26.0093Z" fill="#E27525" stroke="#E27525" stroke-width="0.165833" stroke-linecap="round" stroke-linejoin="round"/>
    <path d="M26.9979 26.0093L26.5051 29.2038L26.7515 37.2246L27.9305 31.1519L26.9979 26.0093Z" fill="#E27525" stroke="#E27525" stroke-width="0.165833" stroke-linecap="round" stroke-linejoin="round"/>
    <path d="M27.9302 31.1526L26.7512 37.2253L27.5959 37.8221L32.8221 33.7501L32.9805 29.6782L27.9302 31.1526Z" fill="#F5841F" stroke="#F5841F" stroke-width="0.165833" stroke-linecap="round" stroke-linejoin="round"/>
    <path d="M15.5771 29.6782L15.718 33.7501L20.9441 37.8221L21.7888 37.2253L20.6098 31.1526L15.5771 29.6782Z" fill="#F5841F" stroke="#F5841F" stroke-width="0.165833" stroke-linecap="round" stroke-linejoin="round"/>
    <path d="M28.0358 43.421L28.0885 41.7536L27.6311 41.3674H20.9092L20.4693 41.7536L20.5045 43.421L14.8735 40.7532L16.8443 42.3679L20.8388 45.1235H27.6838L31.6959 42.3679L33.6491 40.7532L28.0358 43.421Z" fill="#C0AC9D" stroke="#C0AC9D" stroke-width="0.165833" stroke-linecap="round" stroke-linejoin="round"/>
    <path d="M27.596 37.8218L26.7513 37.2251H21.7891L20.9445 37.8218L20.4694 41.7534L20.9093 41.3672H27.6312L28.0887 41.7534L27.596 37.8218Z" fill="#161616" stroke="#161616" stroke-width="0.165833" stroke-linecap="round" stroke-linejoin="round"/>
    <path d="M45.5445 17.0235L47.0403 9.75728L44.7879 3L27.5961 15.7248L34.2123 21.3061L43.5561 24.0266L45.615 21.6221L44.7176 20.9726L46.1428 19.6739L45.0519 18.8314L46.4773 17.7432L45.5445 17.0235Z" fill="#763E1A" stroke="#763E1A" stroke-width="0.165833" stroke-linecap="round" stroke-linejoin="round"/>
    <path d="M1.50012 9.75728L3.01343 17.0235L2.04562 17.7432L3.48854 18.8314L2.39755 19.6739L3.82288 20.9726L2.92545 21.6221L4.98426 24.0266L14.3281 21.3061L20.9444 15.7248L3.7525 3L1.50012 9.75728Z" fill="#763E1A" stroke="#763E1A" stroke-width="0.165833" stroke-linecap="round" stroke-linejoin="round"/>
    <path d="M43.556 24.0268L34.2122 21.3064L37.0276 25.5539L32.822 33.7503L38.3826 33.6801H46.6881L43.556 24.0268Z" fill="#F5841F" stroke="#F5841F" stroke-width="0.165833" stroke-linecap="round" stroke-linejoin="round"/>
    <path d="M14.3277 21.3064L4.98398 24.0268L1.86938 33.6801H10.1574L15.7179 33.7503L11.5123 25.5539L14.3277 21.3064Z" fill="#F5841F" stroke="#F5841F" stroke-width="0.165833" stroke-linecap="round" stroke-linejoin="round"/>
    <path d="M26.9976 26.0096L27.5959 15.7244L30.3057 8.40552H18.2345L20.9443 15.7244L21.5426 26.0096L21.7714 29.239L21.789 37.2249H26.7512L26.7689 29.239L26.9976 26.0096Z" fill="#F5841F" stroke="#F5841F" stroke-width="0.165833" stroke-linecap="round" stroke-linejoin="round"/>
</svg>
