<svg width="49" height="48" viewBox="0 0 49 48" fill="none" xmlns="http://www.w3.org/2000/svg">
    <path d="M10.9312 15.5167C18.4439 8.16109 30.6245 8.16109 38.1373 15.5167L39.0415 16.402C39.4171 16.7698 39.4171 17.366 39.0415 17.7338L35.9485 20.7621C35.7606 20.946 35.4561 20.946 35.2683 20.7621L34.0241 19.5439C28.783 14.4124 20.2855 14.4124 15.0444 19.5439L13.7119 20.8485C13.5241 21.0324 13.2196 21.0324 13.0317 20.8485L9.93874 17.8202C9.5631 17.4524 9.5631 16.8562 9.93874 16.4884L10.9312 15.5167ZM44.5339 21.7796L47.2867 24.4748C47.6623 24.8425 47.6623 25.4388 47.2867 25.8066L34.8742 37.9596C34.4986 38.3274 33.8896 38.3274 33.5139 37.9596C33.5139 37.9596 33.5139 37.9596 33.5139 37.9596L24.7043 29.3343C24.6104 29.2423 24.4581 29.2423 24.3642 29.3343C24.3642 29.3343 24.3642 29.3343 24.3642 29.3343L15.5548 37.9596C15.1792 38.3274 14.5702 38.3274 14.1945 37.9596C14.1945 37.9596 14.1945 37.9596 14.1945 37.9596L1.78173 25.8065C1.40609 25.4387 1.40609 24.8424 1.78173 24.4746L4.53451 21.7794C4.91014 21.4116 5.51917 21.4116 5.89481 21.7794L14.7045 30.4049C14.7984 30.4968 14.9507 30.4968 15.0446 30.4049C15.0446 30.4049 15.0446 30.4049 15.0446 30.4049L23.8539 21.7794C24.2295 21.4116 24.8386 21.4116 25.2142 21.7794C25.2142 21.7794 25.2142 21.7794 25.2142 21.7794L34.0239 30.4049C34.1178 30.4968 34.2701 30.4968 34.364 30.4049L43.1736 21.7796C43.5492 21.4118 44.1582 21.4118 44.5339 21.7796Z" fill="#3B99FC"/>
</svg>
